<svg width="60" height="60" viewBox="0 0 60 60" fill="none" xmlns="http://www.w3.org/2000/svg">
<path d="M30 4.28571C14.5714 4.28571 2.14286 16.7143 2.14286 32.1429C2.14286 47.5714 14.5714 60 30 60C45.4286 60 57.8571 47.5714 57.8571 32.1429C57.8571 16.7143 45.4286 4.28571 30 4.28571ZM30 55.9286C16.9286 55.9286 6.21429 45.2143 6.21429 32.1429C6.21429 19.0714 16.9286 8.35714 30 8.35714C43.0714 8.35714 53.7857 19.0714 53.7857 32.1429C53.7857 45.2143 43.0714 55.9286 30 55.9286ZM3.64286 12.2143L12.2143 3.64286C13.0714 2.78571 13.0714 1.5 12.2143 0.642857C11.3571 -0.214286 10.0714 -0.214286 9.21429 0.642857L0.642857 9.21429C-0.214286 10.0714 -0.214286 11.3571 0.642857 12.2143C1.07143 12.6429 1.5 12.8571 2.14286 12.8571C2.78571 12.8571 3.21429 12.6429 3.64286 12.2143ZM59.3571 9.21429L50.7857 0.642857C49.9286 -0.214286 48.6429 -0.214286 47.7857 0.642857C46.9286 1.5 46.9286 2.78571 47.7857 3.64286L56.3571 12.2143C56.7857 12.6429 57.2143 12.8571 57.8571 12.8571C58.5 12.8571 58.9286 12.6429 59.3571 12.2143C60.2143 11.3571 60.2143 10.0714 59.3571 9.21429Z" fill="#0D1321"/>
<path d="M46.9284 34.2857H46.7141C45.6427 34.0715 44.7855 33.2143 44.7855 32.1429C44.7855 31.0715 45.6427 30.2143 46.7141 30H49.2855C48.2141 21 41.1427 13.9286 32.1427 12.8572V15.4286C31.9284 16.5 31.0713 17.3572 29.9998 17.3572C28.9284 17.3572 28.0713 16.5 27.857 15.4286V12.8572C18.857 13.9286 11.7855 21 10.7141 30H13.2855C14.357 30.2143 15.2141 31.0715 15.2141 32.1429C15.2141 33.2143 14.357 34.0715 13.2855 34.2857H10.7141C11.7855 43.2857 18.857 50.3572 27.857 51.4286V48.8572C28.0713 47.7857 28.9284 46.9286 29.9998 46.9286C31.0713 46.9286 31.9284 47.7857 32.1427 48.8572V51.4286C41.1427 50.3572 48.2141 43.2857 49.2855 34.2857H46.9284C47.1427 34.2857 47.1427 34.2857 46.9284 34.2857ZM38.5713 34.2857H32.1427V40.7143C32.1427 41.7857 31.0713 42.8572 29.9998 42.8572C28.9284 42.8572 27.857 41.7857 27.857 40.7143V34.2857H21.4284C20.357 34.2857 19.2855 33.2143 19.2855 32.1429C19.2855 31.0715 20.357 30 21.4284 30H27.857V23.5715C27.857 22.5 28.9284 21.4286 29.9998 21.4286C31.0713 21.4286 32.1427 22.5 32.1427 23.5715V30H38.5713C39.6427 30 40.7141 31.0715 40.7141 32.1429C40.7141 33.2143 39.6427 34.2857 38.5713 34.2857Z" fill="#0D1321"/>
</svg>
