<svg width="60" height="60" viewBox="0 0 60 60" fill="none" xmlns="http://www.w3.org/2000/svg">
<path d="M40.0005 15H25.0005C24.669 15 24.351 15.1317 24.1166 15.3661C23.8822 15.6005 23.7505 15.9185 23.7505 16.25V38.75C23.7505 39.0815 23.8822 39.3995 24.1166 39.6339C24.351 39.8683 24.669 40 25.0005 40H40.0005C40.332 40 40.65 39.8683 40.8844 39.6339C41.1188 39.3995 41.2505 39.0815 41.2505 38.75V16.25C41.2505 15.9185 41.1188 15.6005 40.8844 15.3661C40.65 15.1317 40.332 15 40.0005 15ZM33.7505 25V27.5H31.2505V25H33.7505ZM38.7505 25V27.5H36.2505V25H38.7505ZM28.7505 27.5H26.2505V25H28.7505V27.5ZM26.2505 30H28.7505V32.5H26.2505V30ZM31.2505 30H33.7505V32.5H31.2505V30ZM36.2505 30H38.7505V32.5H36.2505V30ZM26.2505 17.5H38.7505V22.5H26.2505V17.5ZM26.2505 35H28.7505V37.5H26.2505V35ZM31.2505 35H33.7505V37.5H31.2505V35ZM38.7505 37.5H36.2505V35H38.7505V37.5Z" fill="black"/>
<path d="M58.75 0H1.25C0.918479 0 0.600537 0.131696 0.366117 0.366117C0.131696 0.600537 0 0.918479 0 1.25V53.75C0 54.0815 0.131696 54.3995 0.366117 54.6339C0.600537 54.8683 0.918479 55 1.25 55H5V58.75C5 59.0815 5.1317 59.3995 5.36612 59.6339C5.60054 59.8683 5.91848 60 6.25 60H11.25C11.5815 60 11.8995 59.8683 12.1339 59.6339C12.3683 59.3995 12.5 59.0815 12.5 58.75V55H47.5V58.75C47.5 59.0815 47.6317 59.3995 47.8661 59.6339C48.1005 59.8683 48.4185 60 48.75 60H53.75C54.0815 60 54.3995 59.8683 54.6339 59.6339C54.8683 59.3995 55 59.0815 55 58.75V55H58.75C59.0815 55 59.3995 54.8683 59.6339 54.6339C59.8683 54.3995 60 54.0815 60 53.75V1.25C60 0.918479 59.8683 0.600537 59.6339 0.366117C59.3995 0.131696 59.0815 0 58.75 0ZM10 57.5H7.5V55H10V57.5ZM52.5 57.5H50V55H52.5V57.5ZM57.5 52.5H2.5V2.5H57.5V52.5Z" fill="black"/>
<path d="M7.50049 42.5H10.0005V48.75C10.0005 49.0815 10.1322 49.3995 10.3666 49.6339C10.601 49.8683 10.919 50 11.2505 50H53.7505C54.082 50 54.3999 49.8683 54.6344 49.6339C54.8688 49.3995 55.0005 49.0815 55.0005 48.75V6.25C55.0005 5.91848 54.8688 5.60054 54.6344 5.36612C54.3999 5.1317 54.082 5 53.7505 5H11.2505C10.919 5 10.601 5.1317 10.3666 5.36612C10.1322 5.60054 10.0005 5.91848 10.0005 6.25V12.5H7.50049C6.83745 12.5 6.20156 12.7634 5.73272 13.2322C5.26388 13.7011 5.00049 14.337 5.00049 15V17.5C5.00049 18.163 5.26388 18.7989 5.73272 19.2678C6.20156 19.7366 6.83745 20 7.50049 20H10.0005V35H7.50049C6.83745 35 6.20156 35.2634 5.73272 35.7322C5.26388 36.2011 5.00049 36.837 5.00049 37.5V40C5.00049 40.663 5.26388 41.2989 5.73272 41.7678C6.20156 42.2366 6.83745 42.5 7.50049 42.5ZM7.50049 15H15.0005V17.5H7.50049V15ZM12.5005 20H15.0005C15.6635 20 16.2994 19.7366 16.7683 19.2678C17.2371 18.7989 17.5005 18.163 17.5005 17.5V15C17.5005 14.337 17.2371 13.7011 16.7683 13.2322C16.2994 12.7634 15.6635 12.5 15.0005 12.5H12.5005V7.5H52.5005V47.5H12.5005V42.5H15.0005C15.6635 42.5 16.2994 42.2366 16.7683 41.7678C17.2371 41.2989 17.5005 40.663 17.5005 40V37.5C17.5005 36.837 17.2371 36.2011 16.7683 35.7322C16.2994 35.2634 15.6635 35 15.0005 35H12.5005V20ZM7.50049 37.5H15.0005V40H7.50049V37.5Z" fill="black"/>
</svg>
